<?xml version="1.0" encoding="utf-8"?> 
<!-- Automatically adapted to use only paths with M, A, C and L command, fixed size 512x512 --> 
<svg viewBox="0  0 512  512" version="1.1" xmlns="http://www.w3.org/2000/svg">
<path style="fill:rgb(104,225,253);stroke-width:2;"	d="M364,243 L401,230 C399,228,379,180,359,170 C342,159,311,161,275,163 C264,164,252,166,242,170 C202,186,196,239,196,239 L233,252 C233,252,227,324,221,361 C221,361,267,389,368,372 C368,372,364,254,364,243 " />
<path style="fill:rgb(35,31,32);stroke-width:2;"	d="M273,193 L290,275 L318,181 L273,193 " />
<path style="fill:rgb(35,31,32);stroke-width:2;"	d="M290,276 L290,276 C289,276,289,275,289,275 L272,194 C272,193,272,193,273,193 L318,180 C318,180,319,180,319,181 C319,181,319,181,319,181 L291,275 C291,276,290,276,290,276 M274,194 L290,272 L317,182 L274,194 " />
<path style="fill:rgb(255,255,255);stroke-width:2;"	d="M310,82 C307,82,304,83,302,83 C298,84,299,84,296,82 C288,77,278,79,269,83 C260,86,251,89,242,87 C245,90,249,92,254,92 C246,97,236,93,230,99 C236,107,242,113,249,120 C244,119,239,117,234,115 C243,125,254,132,266,138 C275,141,284,144,294,144 C309,143,325,130,326,114 C327,103,323,84,310,82 " />
<path style="fill:rgb(35,31,32);stroke-width:2;"	d="M291,144 C283,144,275,142,265,138 C252,132,242,125,233,115 C233,115,233,115,233,114 C233,114,234,114,234,114 C238,116,242,117,246,118 C240,113,234,106,229,100 C229,99,229,99,229,99 C233,95,238,95,242,94 C245,94,248,94,251,93 C247,92,244,90,241,87 C241,87,241,87,241,86 C241,86,242,86,242,86 C250,88,259,85,267,82 L269,82 C276,79,288,76,296,82 C297,82,297,82,297,82 C299,83,299,83,300,83 L301,82 C302,82,303,82,304,82 C306,81,308,81,310,81 L310,81 C323,83,328,102,327,114 C326,131,309,143,294,144 C293,144,292,144,291,144 M237,117 C245,125,255,132,266,137 C277,141,286,143,294,143 C312,141,325,127,326,114 C327,102,322,84,310,83 L310,83 C308,82,306,83,304,83 C303,84,302,84,302,84 L301,84 C298,85,298,85,296,84 C296,83,296,83,295,83 C287,78,277,81,269,83 L267,84 C260,87,252,89,245,88 C247,90,250,92,254,92 C254,92,254,92,255,92 C255,93,254,93,254,93 C251,95,247,95,243,96 C238,96,234,97,231,99 C236,106,243,113,250,119 C250,119,250,120,250,120 C250,120,249,120,249,120 C245,120,241,119,237,117 " />
<path style="fill:rgb(255,255,255);stroke-width:2;"	d="M274,166 L273,193 C273,193,284,209,301,202 C317,195,318,181,318,181 L313,129 C313,129,299,125,298,96 C298,96,280,109,254,110 C254,110,251,141,255,154 C259,168,274,166,274,166 " />
<path style="fill:rgb(35,31,32);stroke-width:2;"	d="M292,204 C280,204,272,194,272,194 C272,194,272,194,272,193 L273,167 C270,167,258,166,254,155 C250,142,253,111,253,110 C253,109,253,109,254,109 C269,108,284,104,297,95 C298,95,298,95,299,96 C299,96,299,96,299,96 C299,110,303,118,306,123 C310,127,313,129,313,129 C313,129,314,129,314,129 L319,181 C319,181,318,195,301,202 C298,204,295,204,292,204 M274,193 C275,195,285,207,300,201 C316,194,317,181,317,181 L312,130 C309,129,298,122,297,97 C284,105,270,110,254,111 C254,115,252,143,256,154 C260,167,273,166,274,166 C274,166,274,166,275,166 C275,166,275,166,275,167 L274,193 " />
<path style="fill:rgb(255,255,255);stroke-width:2;"	d="M305,143 C309,144,313,143,316,141 C321,139,323,134,323,128 C323,126,323,125,322,123 C321,121,320,120,318,119 C316,118,313,119,311,120 C308,121,308,123,306,126 C306,125,306,125,307,125 " />
<path style="fill:rgb(35,31,32);stroke-width:2;"	d="M309,144 C308,144,306,144,305,144 C305,144,304,143,305,143 C305,142,305,142,305,142 C306,142,306,142,306,142 C309,143,313,143,316,141 C320,138,322,134,322,128 C322,127,322,125,321,123 C321,122,319,120,318,120 C316,119,314,120,312,121 C310,122,309,123,308,124 C308,125,307,125,307,126 L307,126 C306,126,306,126,305,126 C305,126,305,125,305,125 L305,125 L306,125 C306,124,306,124,306,124 L307,123 C308,122,309,120,311,120 C313,119,316,118,318,118 C320,119,322,121,323,123 C324,124,324,126,324,129 C324,135,321,139,317,142 C314,143,312,144,309,144 " />
<path style="fill:rgb(35,31,32);stroke-width:2;"	d="M274,181 C280,181,286,178,289,173 C296,164,294,158,294,158 C294,158,286,167,274,166 L274,181 " />
<path style="fill:rgb(35,31,32);stroke-width:2;"	d="M274,181 C274,181,274,181,274,181 C273,181,273,181,273,181 L273,166 C273,166,274,166,274,166 C274,166,274,166,274,166 C285,166,294,158,294,158 C294,157,295,157,295,158 C295,158,295,158,295,158 C295,158,297,164,290,173 C287,178,281,181,274,181 M275,167 L274,180 C280,180,285,177,289,172 C293,167,294,162,294,160 C291,162,284,167,275,167 L275,167 " />
<path style="fill:rgb(255,255,255);stroke-width:2;"	d="M276,123 C276,123,269,138,271,140 C274,142,280,140,280,140 " />
<path style="fill:rgb(35,31,32);stroke-width:2;"	d="M274,142 C273,142,272,142,271,141 C268,139,274,127,276,123 C276,123,276,123,277,123 C277,123,277,123,277,124 C274,131,271,139,272,140 C274,141,278,140,279,139 C280,139,280,139,280,140 C281,140,280,141,280,141 C278,142,276,142,274,142 " />
<path style="fill:rgb(35,31,32);stroke-width:2;"	d="M285,121 A2,3,0,1,0,289,121 A2,3,0,1,0,285,121 " />
<path style="fill:rgb(35,31,32);stroke-width:2;"	d="M263,124 A3,2,0,1,0,269,124 A3,2,0,1,0,263,124 " />
<path style="fill:rgb(35,31,32);stroke-width:2;"	d="M275,161 C274,161,272,160,270,159 C266,155,266,147,266,147 C266,146,267,146,267,146 C288,143,288,144,288,144 C288,144,289,144,289,145 L289,145 C289,148,288,151,286,154 C285,157,281,160,278,160 C277,161,276,161,275,161 M268,147 C268,149,268,155,271,158 C273,159,275,160,277,159 C280,158,283,156,285,153 C286,151,287,148,287,146 C284,146,274,147,268,147 L268,147 M288,145 L288,145 " />
<path style="fill:rgb(35,31,32);stroke-width:2;"	d="M286,153 C282,160,274,161,271,159 C272,156,274,153,277,152 C280,152,283,152,286,153 " />
<path style="fill:rgb(35,31,32);stroke-width:2;"	d="M275,161 C274,161,272,160,270,159 C270,159,270,159,270,158 C272,155,274,152,276,152 C280,151,283,151,286,153 C286,153,286,153,286,153 C287,153,287,153,286,154 C285,157,281,160,278,160 C277,161,276,161,275,161 M272,158 C273,159,275,159,277,159 C280,158,283,156,284,154 C282,153,279,152,277,153 C275,154,273,155,272,158 L272,158 " />
<path style="fill:rgb(35,31,32);stroke-width:2;"	d="M244,191 C245,193,233,252,233,252 " />
<path style="fill:rgb(35,31,32);stroke-width:2;"	d="M233,253 L233,253 C232,253,232,252,232,252 C232,252,232,252,232,252 C237,229,244,193,244,191 C244,191,244,191,244,191 C245,191,245,191,245,191 C245,193,235,242,233,252 C233,252,233,253,233,253 " />
<path style="fill:rgb(35,31,32);stroke-width:2;"	d="M311,115 L337,118 C340,118,342,121,342,123 L336,182 C335,185,333,187,330,187 L304,184 C301,184,299,181,299,179 L305,120 C305,117,308,115,311,115 " />
<path style="fill:rgb(35,31,32);stroke-width:2;"	d="M331,188 C330,188,330,188,330,188 L304,185 C300,185,298,182,298,178 L304,120 C304,118,305,117,306,116 C308,114,309,114,311,114 L337,117 C340,117,343,120,343,123 C343,123,343,123,343,123 L337,182 C336,185,334,188,331,188 L331,188 M310,116 C309,116,308,116,307,117 C306,117,306,119,306,120 L300,179 C300,181,301,183,304,184 L330,186 C331,186,332,186,333,185 C334,184,335,183,335,182 L341,123 C341,122,341,121,340,120 C339,119,338,118,337,118 L311,116 L310,116 " />
<path style="fill:rgb(255,255,255);stroke-width:2;"	d="M401,230 C401,230,412,252,414,261 C420,289,395,326,365,307 C356,301,349,291,345,280 C335,258,331,232,329,208 C328,197,330,178,317,174 C312,172,307,177,306,175 C305,172,311,164,320,168 C320,168,313,161,307,163 C300,165,303,158,307,157 C311,155,320,156,323,163 C323,163,320,153,315,152 C310,151,308,149,308,148 C309,145,314,146,317,146 C319,147,327,151,329,156 C329,156,326,148,320,144 C316,141,313,141,313,140 C314,139,319,135,325,140 C331,144,339,158,339,158 C339,158,339,148,340,149 C344,150,347,161,347,164 C349,173,351,179,355,187 C363,202,372,223,378,238 " />
<path style="fill:rgb(35,31,32);stroke-width:2;"	d="M382,313 C376,313,370,311,365,308 C356,302,349,293,344,280 C335,260,330,235,328,208 C328,206,328,204,328,202 C328,191,327,178,317,174 C315,174,312,175,310,175 C308,176,307,177,306,175 C305,174,306,171,308,169 C310,167,313,165,317,166 C314,164,311,163,307,164 C304,165,302,164,302,163 C301,160,304,157,307,156 C310,155,317,155,321,159 C320,156,318,153,315,153 C312,152,307,151,308,148 C308,144,315,145,317,145 C320,146,323,148,325,150 C324,148,322,146,320,144 C318,143,317,143,315,142 C314,142,313,142,313,141 C313,140,313,140,313,140 C314,138,316,137,318,137 C321,136,323,137,326,139 C330,142,336,151,338,155 C338,149,339,148,339,148 C339,148,340,148,340,148 C345,149,348,161,348,164 C350,173,352,179,356,187 C362,199,369,214,375,228 C376,231,378,235,379,238 C379,238,379,238,379,239 C378,239,378,239,378,238 C376,235,375,232,374,229 C368,215,361,199,355,187 C351,179,348,173,347,165 C346,158,343,151,340,150 C340,152,340,155,340,158 C340,158,339,159,339,159 C339,159,338,159,338,158 C338,158,330,145,325,140 C323,139,320,138,318,138 C317,139,315,139,314,140 C315,140,315,140,316,141 C317,141,319,142,321,143 C327,147,330,156,330,156 C330,157,330,157,330,157 C329,157,329,157,328,157 C328,157,328,157,328,157 C327,151,319,147,317,147 C312,146,310,146,309,148 C309,149,311,150,315,151 C321,152,324,162,324,163 C324,163,324,163,324,163 C323,164,323,163,323,163 C320,157,311,156,308,157 C305,158,303,161,304,162 C304,163,305,163,307,162 C314,160,321,167,321,167 C321,168,321,168,321,168 C321,169,320,169,320,169 C314,166,310,169,309,170 C307,172,307,173,307,175 C308,175,309,174,310,174 C312,173,315,172,317,173 C329,177,330,191,330,202 C330,204,330,206,330,208 C332,235,337,259,346,280 C351,292,358,301,366,306 C377,313,388,313,397,306 C410,297,417,277,413,262 C411,253,400,230,400,230 C400,230,400,229,401,229 C401,229,402,229,402,230 C402,230,402,230,402,230 C402,231,413,252,415,261 C419,278,412,298,398,307 C393,311,388,313,382,313 " />
<path style="fill:rgb(255,255,255);stroke-width:2;"	d="M320,126 A3,3,0,1,0,326,126 A3,3,0,1,0,320,126 " />
<path style="fill:rgb(35,31,32);stroke-width:2;"	d="M323,130 C321,130,319,129,319,126 C319,124,321,123,323,123 C325,123,327,124,327,126 C327,129,325,130,323,130 L323,130 M323,124 C322,124,321,125,321,126 C321,128,322,129,323,129 C324,129,325,128,325,126 C325,126,325,126,325,126 C325,125,324,124,323,124 C323,124,323,124,323,124 " />
<path style="fill:rgb(35,31,32);stroke-width:2;"	d="M391,270 C391,270,391,270,391,269 L376,235 C376,235,376,234,377,234 C377,234,378,234,378,235 L392,269 C392,269,392,269,392,270 C392,270,392,270,392,270 C392,270,392,270,391,270 " />
<path style="fill:rgb(255,255,255);stroke-width:2;"	d="M196,239 L188,277 L162,246 C162,246,157,239,154,238 C151,236,136,235,132,232 C127,228,124,227,124,230 C123,233,136,241,136,241 C136,241,126,244,124,243 C122,242,116,231,114,231 C113,231,111,233,113,238 C111,233,109,228,106,228 C104,228,104,232,106,237 C106,237,100,228,98,233 C96,239,111,257,114,258 C117,259,140,252,140,252 C140,252,168,331,208,342 C219,344,233,252,233,252 L196,239 " />
<path style="fill:rgb(35,31,32);stroke-width:2;"	d="M209,343 C209,343,208,343,208,343 C191,338,175,322,159,294 C151,281,145,267,140,253 C135,255,117,260,114,259 C111,258,102,248,99,241 C97,238,96,235,97,233 C98,232,98,231,100,231 C101,231,103,232,104,234 C104,231,104,229,105,228 C105,228,106,227,106,227 L106,227 C108,227,110,229,112,233 C112,232,112,232,112,231 C113,231,114,230,114,230 C116,230,118,233,120,237 C122,239,124,242,124,242 C126,243,131,242,135,240 C131,238,123,233,123,230 C123,229,124,228,125,227 C126,227,129,228,132,231 C135,233,143,235,148,236 C151,236,153,236,155,237 C158,238,162,245,162,246 L188,276 L195,239 C195,239,195,239,195,239 C196,239,196,239,196,239 L233,251 C233,251,234,252,234,252 C233,255,221,336,211,342 C210,342,210,343,209,343 M140,251 C141,251,141,252,141,252 C141,253,169,331,209,341 C209,341,209,341,210,341 C217,336,227,281,232,253 L196,240 L189,278 C189,278,189,278,188,278 C188,278,188,278,187,278 L161,247 C160,245,156,239,154,238 C152,238,150,238,148,237 C142,236,135,235,131,232 C127,229,126,229,125,229 C125,229,125,230,125,230 C125,232,131,236,137,240 C137,240,137,241,137,241 C137,241,137,241,137,242 C135,242,126,245,124,244 C123,243,121,241,119,238 C118,236,115,232,114,232 C114,232,114,232,114,232 C113,233,113,234,114,237 L114,238 C114,238,114,239,113,239 C113,239,113,239,113,239 C113,239,113,239,112,238 C112,238,112,238,112,238 C110,231,107,229,106,229 L106,229 C106,229,106,229,106,229 C106,229,105,231,106,237 C107,238,106,238,106,238 C106,238,105,238,105,238 C104,236,101,233,100,233 C99,233,99,233,99,234 C98,235,98,236,100,240 C104,248,112,257,114,258 C117,258,131,254,140,252 L140,251 " />
<path style="fill:none;stroke-width:2;"	d="M113,238 L118,245 L113,238 " />
<path style="fill:rgb(35,31,32);stroke-width:2;"	d="M118,246 C118,246,118,246,117,245 L112,238 C112,238,112,238,113,237 C113,237,113,237,113,237 C113,237,113,237,114,237 L119,245 C119,245,119,245,118,246 C118,246,118,246,118,246 " />
<path style="fill:rgb(255,255,255);stroke-width:2;"	d="M106,237 C107,240,109,242,111,245 " />
<path style="fill:rgb(35,31,32);stroke-width:2;"	d="M111,246 C111,246,111,246,111,246 C109,243,107,240,105,238 C105,237,105,237,105,237 C105,236,106,236,106,237 C106,237,106,237,106,237 C108,239,110,242,112,244 C112,245,112,245,112,246 C112,246,111,246,111,246 " />
<path style="fill:rgb(255,255,255);stroke-width:2;"	d="M106,338 L406,338 L455,433 L57,433 L106,338 " />
<path style="fill:rgb(209,211,212);stroke-width:2;"	d="M455,434 L57,434 C57,434,57,433,57,433 C57,433,57,433,57,432 L105,338 C105,338,105,337,106,337 L406,337 C407,337,407,338,407,338 L455,432 C455,433,455,433,455,433 C455,433,455,434,455,434 M59,432 L453,432 L406,339 L106,339 L59,432 " />
<path style="fill:rgb(255,255,255);stroke-width:2;"	d="M133,381 L134,385 L242,401 L241,396 L133,381 " />
<path style="fill:rgb(35,31,32);stroke-width:2;"	d="M242,402 L242,402 L134,386 C133,386,133,386,133,385 L133,381 C133,380,133,380,133,380 L241,395 C241,395,242,396,242,396 L243,401 C243,401,243,402,242,402 C242,402,242,402,242,402 M135,385 L241,400 L240,397 L134,381 L135,385 " />
<path style="fill:rgb(255,255,255);stroke-width:2;"	d="M133,381 C133,381,158,359,159,360 C160,360,271,373,271,373 L241,396 L133,381 " />
<path style="fill:rgb(35,31,32);stroke-width:2;"	d="M241,397 L241,397 L133,381 C133,381,133,381,133,381 C133,381,133,380,133,380 C158,359,159,359,159,359 C161,359,269,372,271,372 C271,372,271,373,271,373 C271,373,271,373,271,374 L241,397 C241,397,241,397,241,397 M135,380 L241,395 L268,374 C247,371,164,361,159,360 C157,361,144,372,135,380 " />
<path style="fill:rgb(255,255,255);stroke-width:2;"	d="M242,401 L271,378 L271,373 L241,396 L242,401 " />
<path style="fill:rgb(35,31,32);stroke-width:2;"	d="M242,402 C242,402,241,402,241,401 L240,396 C240,396,240,396,241,395 L270,372 C270,372,270,372,271,372 C271,372,271,373,271,373 L272,378 C272,378,272,378,271,378 L243,402 C243,402,242,402,242,402 M242,396 L243,400 L270,377 L270,374 L242,396 " />
<path style="fill:rgb(255,255,255);stroke-width:2;"	d="M133,381 L113,311 L227,330 L241,396 L133,381 " />
<path style="fill:rgb(35,31,32);stroke-width:2;"	d="M241,397 L241,397 L133,381 C133,381,133,381,133,381 L112,311 C112,311,112,311,112,310 C112,310,112,310,113,310 L227,330 C227,330,228,330,228,330 L242,396 C242,396,242,397,242,397 C242,397,241,397,241,397 M134,380 L240,395 L226,331 L114,312 L134,380 " />
<path style="fill:rgb(255,255,255);stroke-width:2;"	d="M295,379 A42,13,0,1,0,379,379 A42,13,0,1,0,295,379 " />
<path style="fill:rgb(209,211,212);stroke-width:2;"	d="M337,392 C316,392,294,387,294,379 C294,370,316,365,337,365 C358,365,380,370,380,379 C380,387,358,392,337,392 M337,367 C312,367,295,373,295,379 C295,385,312,391,337,391 C362,391,378,385,378,379 C378,373,362,367,337,367 L337,367 " />
<path style="fill:rgb(255,255,255);stroke-width:2;"	d="M305,343 L304,343 C301,343,298,345,296,347 C294,350,294,355,296,359 C301,367,311,369,320,370 C321,370,322,370,323,369 C325,369,326,368,325,366 C325,365,325,365,324,364 C323,364,322,364,321,363 C316,363,310,362,306,360 C303,358,299,355,301,351 C302,350,303,349,304,349 C309,347,313,348,318,350 C318,350,319,350,319,350 C320,350,321,349,320,348 C320,346,318,344,316,344 C313,342,309,342,305,343 " />
<path style="fill:rgb(35,31,32);stroke-width:2;"	d="M321,370 C321,370,320,370,320,370 C307,369,299,365,295,359 C293,355,293,350,296,347 C298,344,301,342,304,342 C304,342,305,342,305,342 C309,341,313,342,316,343 C318,344,321,345,321,348 C321,349,320,351,319,351 C318,351,318,351,317,351 L316,350 C312,349,308,348,304,350 C303,350,302,351,301,352 C301,353,301,353,301,354 C301,356,304,358,306,359 C310,361,314,362,319,362 L321,363 C322,363,323,363,324,364 C325,364,326,365,326,366 C326,368,325,369,323,370 C323,370,322,370,321,370 M305,343 C305,343,305,343,304,344 C302,344,299,345,297,348 C295,350,295,355,297,358 C300,364,308,368,320,369 C321,369,322,369,323,369 C324,368,324,368,324,367 C324,366,324,365,323,365 C322,365,322,364,321,364 L319,364 C314,363,309,362,305,360 C303,359,300,357,299,355 C299,354,299,352,300,351 C301,350,302,349,303,348 C308,346,312,347,317,349 L318,349 C318,349,318,349,319,349 C319,349,319,348,319,348 C319,346,317,345,316,344 C312,343,309,343,305,343 " />
<path style="fill:rgb(255,255,255);stroke-width:2;"	d="M309,334 C309,334,317,373,317,376 C318,378,337,388,352,378 L365,338 L309,334 " />
<path style="fill:rgb(35,31,32);stroke-width:2;"	d="M337,383 C333,383,328,382,324,381 C321,379,317,377,317,376 C316,373,309,336,308,334 C308,334,308,334,308,333 C309,333,309,333,309,333 L365,337 C365,337,365,337,365,338 C365,338,365,338,365,338 L352,378 C352,379,352,379,352,379 C348,382,342,383,337,383 M310,335 C311,341,318,373,318,376 C318,376,321,378,327,380 C332,382,342,383,351,378 L364,339 L310,335 " />
<path style="fill:rgb(35,31,32);stroke-width:2;"	d="M325,335 A12,28,0,1,0,349,335 A12,28,0,1,0,325,335 " />
<path style="fill:rgb(35,31,32);stroke-width:2;"	d="M339,348 C338,348,337,348,336,348 C320,347,308,341,308,334 C308,330,312,327,317,325 C323,323,330,322,337,322 C353,323,366,329,366,336 C365,340,362,343,357,345 C351,347,345,348,339,348 M335,324 C329,324,323,325,318,326 C313,328,310,331,310,334 C310,340,322,346,336,346 C344,347,351,346,356,344 C361,342,364,339,364,336 C364,330,352,324,337,324 C336,324,336,324,335,324 " />
<path style="fill:rgb(255,255,255);stroke-width:2;"	d="M228,160 C228,160,218,159,212,153 C215,149,217,143,217,137 C217,117,192,100,160,100 C128,100,102,117,102,137 C102,158,128,175,160,175 C177,175,193,170,204,161 C212,162,220,162,228,160 " />
<path style="fill:rgb(209,211,212);stroke-width:2;"	d="M160,176 C127,176,101,159,101,137 C101,116,127,99,160,99 C192,99,218,116,218,138 C218,143,216,149,213,153 C219,159,228,160,228,160 C228,160,229,160,229,160 C229,161,229,161,228,161 C220,163,212,163,204,162 C193,171,177,176,160,176 M160,101 C128,101,103,117,103,137 C103,158,128,174,160,174 C177,174,193,169,203,161 C204,161,204,161,204,161 C210,161,217,161,224,160 C220,159,215,158,211,154 C211,153,211,153,211,153 C215,148,216,143,216,137 C217,117,191,101,160,101 " />
</svg>